<?xml version="1.0"?>
<svg xmlns="http://www.w3.org/2000/svg" viewBox="0 0 512 512" width="512" height="512"><g id="Santa_Claus_Half_Body" data-name="Santa Claus Half Body"><g id="Outline"><path d="M176,144H336a7.989,7.989,0,0,0,8-8V104a7.989,7.989,0,0,0-8-8V56a8,8,0,0,0-16,0V96H192.307c1.448-19.529,8.17-35.517,20.443-48.69a8,8,0,0,0-11.67-10.95,89.189,89.189,0,0,0-18.27,29.05A102.6,102.6,0,0,0,176.273,96H176a7.989,7.989,0,0,0-8,8v32a7.989,7.989,0,0,0,8,8Zm8-32H328v16H184Z"/><path d="M232.43,30.77a7.811,7.811,0,0,0,3.69-.91,7.99,7.99,0,1,0-3.69.91Z"/><path d="M439.8,64.2a28,28,0,0,0-37.041-2.259A182.057,182.057,0,0,0,377.31,34.02a146.484,146.484,0,0,0-34.661-23.27A109.478,109.478,0,0,0,296,0a156.394,156.394,0,0,0-35.4,4.05,8,8,0,1,0,3.629,15.58A142.747,142.747,0,0,1,295.97,16h.139c30.46,0,55.191,16.3,70.571,29.98A165.008,165.008,0,0,1,384.069,64H361.99a8,8,0,0,0,0,16h30.3A28.373,28.373,0,0,0,392,84a28,28,0,1,0,47.8-19.8ZM420,96a12,12,0,1,1,12-12A12.035,12.035,0,0,1,420,96Z"/><path d="M272,176a23.829,23.829,0,0,0-16,6.115A23.831,23.831,0,0,0,240,176H208a7.989,7.989,0,0,0-8,8,40.015,40.015,0,0,0,40,40,23.827,23.827,0,0,0,16-6.116A23.825,23.825,0,0,0,272,224a40.015,40.015,0,0,0,40-40,7.989,7.989,0,0,0-8-8Zm-32,32a24.068,24.068,0,0,1-22.62-16H240a8,8,0,0,1,0,16Zm32,0a8,8,0,0,1,0-16h22.62A24.069,24.069,0,0,1,272,208Z"/><path d="M373.74,272.19a8,8,0,0,0,7.28-11.33,8.035,8.035,0,0,0-7.28-4.68,8,8,0,0,0-7.28,11.33A8.034,8.034,0,0,0,373.74,272.19Z"/><circle cx="256" cy="312" r="8"/><circle cx="256" cy="360" r="8"/><circle cx="256" cy="408" r="8"/><path d="M216,296V424a8,8,0,0,0,16,0V296a8,8,0,0,0-16,0Z"/><path d="M288,288a8,8,0,0,0-8,8V424a8,8,0,0,0,16,0V296A8,8,0,0,0,288,288Z"/><path d="M408,424h-4.532L388.609,294.32a7.984,7.984,0,0,0-7.929-7.09c-.31,0-.62.02-.92.05a7.988,7.988,0,0,0-7.04,8.86L387.36,424H360V412.187c0-.06-.008-.117-.009-.176,0-.192-.011-.383-.029-.573-.009-.1-.025-.195-.037-.292-.021-.157-.042-.315-.072-.471-.024-.124-.055-.246-.084-.368s-.06-.25-.1-.373-.072-.226-.11-.339L351.979,303.43a8,8,0,0,0-15.958,1.14l7.654,107.159A55.935,55.935,0,0,1,291.266,448H220.734a56.171,56.171,0,0,1-52.952-37.642,7.9,7.9,0,0,0-.429-1.323,55.988,55.988,0,0,1-2.476-21.025l6.02-84.291a8,8,0,0,0-13.46-6.4l-24.993,23.512a26.333,26.333,0,0,1-21.218,6.978C97.984,326.229,88,314.694,88,300.982V232h32v56a8,8,0,0,0,16,0V272.036l13.066-13.676A59.654,59.654,0,0,1,192,240c.178,0,.353-.015.528-.027,9.05,10.438,21.324,19.63,35.972,26.9,17.12,8.44,35.41,13.1,51.5,13.13a8.008,8.008,0,0,0,8-8c.08-6.25,2.17-9.95,5.52-13.89,3.1-3.64,7.629-7.04,12.86-10.98,3.849-2.88,7.82-5.87,11.769-9.35a70.338,70.338,0,0,0,5.125-5.063A61.986,61.986,0,0,1,349.3,245.27a7.995,7.995,0,0,0,11.26-1.13,8.022,8.022,0,0,0-1.13-11.26,77.79,77.79,0,0,0-26.994-14.309A47.674,47.674,0,0,0,336,200V168a8,8,0,0,0-16,0v32a30.139,30.139,0,0,1-5.667,18.373,8.036,8.036,0,0,0-1.311,1.728c-4.032,5.018-9.8,9.379-15.9,13.969-2.28,1.72-4.641,3.5-6.96,5.35a57.4,57.4,0,0,0-12.45,13.11,34.925,34.925,0,0,0-4.771,11.13c-17.009-1.64-36.229-8.87-51.419-19.35-9.041-6.19-16.49-13.38-21.541-20.79C194.689,215.74,192,207.83,192,200V168a8,8,0,0,0-16,0v32a52.462,52.462,0,0,0,2.92,17.1,60.271,60.271,0,0,0,3.205,7.582A75.756,75.756,0,0,0,137.5,247.307l-1.5,1.568V232a8,8,0,0,0,8-8V192a8,8,0,0,0-8-8V160a32,32,0,0,0-64,0v24a8,8,0,0,0-8,8v32a8,8,0,0,0,8,8v68.982c0,21.808,16.047,40.172,37.325,42.717a42.288,42.288,0,0,0,34.082-11.21l10.072-9.475-4.561,63.856A71.958,71.958,0,0,0,152,413.309v13.857c0,37.69,30.511,68.568,68.017,68.832H231.96l.04,0,.04,0,47.952,0h11.274l.72,0A68.27,68.27,0,0,0,344,471.254V484a28,28,0,0,0,56,0V472h8a8,8,0,0,0,8-8V432A8,8,0,0,0,408,424ZM88,160a16,16,0,0,1,32,0v24H88Zm-8,56V200h48v16ZM224,480h-3.266l-.609,0a52.7,52.7,0,0,1-49.447-36.248A72.259,72.259,0,0,0,220.734,464H224Zm48,0H240V464h32Zm19.878,0H288V464h3.266a71.883,71.883,0,0,0,50.049-20.23A52.7,52.7,0,0,1,291.878,480ZM384,484a12,12,0,0,1-24,0V472h24Zm16-28H353.652a68.479,68.479,0,0,0,5.13-16H400Z"/></g></g></svg>
